<svg width="22" height="21" viewBox="0 0 22 21" fill="none" xmlns="http://www.w3.org/2000/svg">
<g clip-path="url(#clip0_671_276)">
<path d="M10.9761 21C10.8965 20.8924 10.7796 20.8148 10.6778 20.7256C10.2541 20.3539 9.82669 19.9851 9.40082 19.6149C9.36558 19.5843 9.33217 19.5519 9.29238 19.5152C9.34128 19.4751 9.38168 19.4363 9.42877 19.4049C9.87226 19.1087 10.049 18.6929 10.1274 18.233C10.1736 17.9629 10.1958 17.6911 10.1815 17.4181C10.1672 17.1461 10.1478 16.8741 10.0891 16.6058C8.99287 15.9784 7.19612 15.8594 5.7092 17.1946C5.64875 17.1519 5.58527 17.1107 5.52664 17.0651C5.01511 16.6686 4.39726 16.5034 3.73262 16.4343C3.10748 16.3694 2.49176 16.4245 1.87877 16.5308C1.82014 16.5411 1.75969 16.5443 1.67403 16.5535C1.75453 16.4251 1.8168 16.3079 1.89669 16.2005C2.39152 15.5341 2.41582 14.8173 2.2129 14.0731C2.10689 13.6842 1.93922 13.3164 1.71504 12.955C1.85659 12.9004 1.98842 12.8487 2.12086 12.798C2.34352 12.7128 2.55008 12.6052 2.74236 12.4746C3.58834 11.901 3.29733 10.9405 2.63696 10.5658C2.24267 10.3421 1.80526 10.2392 1.34658 10.1814C0.970519 10.1342 0.591424 10.1696 0.188636 10.1495C0.342947 9.97856 0.48207 9.81947 0.627268 9.66461C1.01882 9.24777 1.20199 8.7655 1.2278 8.23363C1.26821 7.39864 1.01882 6.61983 0.605397 5.87612C0.406737 5.51916 0.189547 5.16986 0 4.8013C0.329278 4.99178 0.662201 5.17725 0.986618 5.3738C1.45988 5.66057 1.96868 5.87401 2.53975 5.96265C3.54338 6.11883 4.51025 5.99985 5.44645 5.66216C5.59438 5.6086 5.7411 5.55241 5.90513 5.4912C5.87688 5.71439 5.84711 5.91859 5.82645 6.12332C5.78818 6.50296 5.81491 6.87811 5.96011 7.24087C6.13386 7.67486 6.43671 7.82313 6.95645 7.73527C6.97133 7.73264 6.98682 7.73263 7.00171 7.73C7.69702 7.60732 7.95339 7.2625 7.79726 6.6602C7.66664 6.1555 7.39083 5.70991 7.05578 5.28858C6.96435 5.17329 6.86836 5.06064 6.76356 4.93322C6.90693 4.89945 7.03786 4.87201 7.16635 4.83798C9.0275 4.34225 10.1879 3.27694 10.6107 1.62198C10.7398 1.11702 10.8397 0.606792 10.954 0.0989334C10.9612 0.0659556 10.9758 0.0342969 11.0138 0C11.0615 0.208156 11.1067 0.416576 11.1572 0.624204C11.2914 1.17665 11.3567 1.74466 11.5934 2.27494C12.2085 3.65209 13.364 4.50398 14.9982 4.88019C15.0708 4.89681 15.1431 4.91422 15.2285 4.93453C15.1158 5.07199 15.0074 5.1973 14.9068 5.32737C14.5812 5.74843 14.3063 6.19086 14.1908 6.69423C14.0569 7.2778 14.3035 7.5994 14.9733 7.72762C15.1276 7.75717 15.2844 7.77379 15.4402 7.75189C15.6838 7.7176 15.8473 7.58727 15.9563 7.40075C16.0985 7.1575 16.148 6.89421 16.1708 6.62616C16.2027 6.2518 16.1437 5.88166 16.0878 5.48724C16.2582 5.55188 16.4098 5.61282 16.5641 5.66743C17.6288 6.04364 18.7181 6.15445 19.8384 5.88139C20.1801 5.79802 20.4985 5.66611 20.7946 5.49489C21.1925 5.26458 21.5902 5.03426 21.9999 4.79708C22.0018 4.8662 21.9589 4.90683 21.9337 4.95168C21.6385 5.47326 21.2894 5.97268 21.0771 6.52881C20.8772 7.05224 20.7436 7.58569 20.7585 8.13971C20.774 8.71696 20.9574 9.2446 21.393 9.69468C21.5312 9.83767 21.6594 9.98779 21.8119 10.1561C21.5188 10.1561 21.2576 10.1487 20.9972 10.1577C20.5036 10.1746 20.027 10.2603 19.5808 10.4524C19.0677 10.6735 18.7828 11.0354 18.7284 11.5269C18.6953 11.8269 18.8269 12.0857 19.0544 12.3084C19.298 12.5469 19.6081 12.7004 19.9407 12.8241C20.0507 12.865 20.1598 12.9078 20.2807 12.9542C19.9237 13.5238 19.7166 14.1211 19.6613 14.7593C19.6036 15.426 19.9201 15.9871 20.3399 16.5588C20.048 16.5179 19.8031 16.4776 19.5565 16.4501C18.7424 16.3594 17.9432 16.3997 17.1741 16.6744C16.8372 16.7947 16.5565 16.9881 16.2838 17.2039C15.5763 16.5599 14.7327 16.1747 13.7042 16.1512C13.0569 16.1364 12.4612 16.3055 11.9059 16.5994C11.8142 17.0809 11.7932 17.5621 11.8406 18.0455C11.8592 18.2338 11.9014 18.4185 11.9576 18.6011C12.0751 18.9831 12.3406 19.2733 12.7455 19.5271C12.1565 20.026 11.5815 20.5127 11.0068 20.9997H10.9764L10.9761 21ZM10.7109 15.3305C10.8039 12.2991 10.8971 9.26755 10.9883 6.29348C11.0843 6.98417 10.9956 7.73659 11.0676 8.48532C11.0928 8.74624 11.0758 9.00901 11.0897 9.27177C11.1377 10.1717 11.1566 11.0729 11.1845 11.9736C11.2185 13.0721 11.2507 14.1704 11.2851 15.269C11.2857 15.2904 11.2671 15.3233 11.3245 15.3344C12.011 14.2438 12.8695 13.2555 13.8345 12.3395C15.2832 10.9639 16.6786 9.81156 16.8928 9.77911C16.8898 9.81947 16.8509 9.83794 16.8235 9.86195C16.6319 10.0287 16.4472 10.201 16.2564 10.3682C15.805 10.7645 15.3776 11.1821 14.9639 11.6092C14.0961 12.5049 13.2774 13.432 12.5976 14.4453C12.3783 14.7722 12.1802 15.1099 11.9795 15.4457C11.8944 15.5879 11.8279 15.7383 11.741 15.9088C13.3901 15.2157 14.9089 15.3996 16.3311 16.3137C17.147 15.8605 18.0441 15.7312 19.0055 15.7373C18.7755 14.8838 18.9198 14.0749 19.2485 13.2835C19.1516 13.2286 19.0711 13.184 18.9918 13.1376C18.5844 12.8985 18.2667 12.5951 18.0884 12.1907C17.7306 11.3797 18.1388 10.2714 19.3189 9.8105C19.6476 9.68202 19.9954 9.61474 20.3511 9.53296C19.8098 8.52806 19.9374 7.50944 20.2782 6.46681C19.1586 6.79554 18.0602 6.76203 16.9739 6.50639C16.9283 6.55915 16.939 6.60005 16.9362 6.63856C16.9153 6.9285 16.8621 7.21211 16.7491 7.48728C16.5684 7.92681 16.2476 8.24788 15.72 8.37346C15.2409 8.48743 14.7735 8.4067 14.3306 8.23311C13.724 7.99514 13.4087 7.58305 13.4014 6.99895C13.3956 6.52064 13.5709 6.08401 13.8035 5.66031C13.8679 5.54317 13.9381 5.42841 14.0086 5.30732C12.6477 4.7897 11.6256 3.98055 10.9965 2.78649C10.371 3.98055 9.34888 4.79049 8.00898 5.29914C8.00746 5.32183 8.00321 5.33185 8.00716 5.33871C8.03359 5.38593 8.06093 5.43289 8.08887 5.47933C8.30576 5.83892 8.48589 6.21012 8.56487 6.61324C8.67331 7.16779 8.56942 7.66721 8.03875 8.04184C7.74046 8.25263 7.38354 8.34892 7.00869 8.40037C5.90877 8.55128 5.34317 7.92839 5.14603 7.20789C5.08345 6.97863 5.06037 6.7433 5.03941 6.50349C3.92703 6.77311 2.82741 6.78973 1.71474 6.47024C2.06224 7.50865 2.18192 8.52252 1.647 9.53138C1.70684 9.54615 1.75362 9.56092 1.80161 9.5691C2.19134 9.63506 2.55585 9.75879 2.90487 9.92157C4.14422 10.4996 4.51663 12.1306 3.21015 12.9964C3.05888 13.0967 2.89546 13.184 2.74358 13.2924C3.08227 14.0868 3.20621 14.8936 2.98689 15.7389C3.94799 15.7328 4.85502 15.8647 5.66455 16.3132C7.10013 15.403 8.61408 15.2144 10.251 15.909C9.92663 15.2199 9.53144 14.5976 9.08794 13.9979C7.99501 12.5205 6.68671 11.1958 5.26784 9.95033C5.17094 9.86511 5.07252 9.78148 4.97471 9.69706C4.98898 9.68598 5.00296 9.67516 5.01723 9.66408C7.20492 11.3262 9.21735 13.122 10.7109 15.3315V15.3305ZM11.6055 19.4994C11.4318 19.3445 11.3409 19.1506 11.269 18.9483C11.1973 18.7472 11.1441 18.5428 11.1086 18.3346C11.0742 18.133 11.0402 17.9317 11.0062 17.7302C10.8738 18.3478 10.8519 18.9849 10.3941 19.5134C10.5964 19.6848 10.8015 19.8582 10.9992 20.0257C11.1897 19.8603 11.392 19.6848 11.6058 19.4994H11.6055Z" fill="#222222"/>
<path d="M19.3184 9.81014C19.6471 9.68166 19.9949 9.61438 20.3506 9.5326C19.8093 8.5277 19.9369 7.50908 20.2777 6.46646C19.158 6.79518 18.0596 6.76167 16.9734 6.50603C16.9278 6.55879 16.9385 6.59969 16.9357 6.6382C16.9148 6.92814 16.8616 7.21175 16.7486 7.48692C16.5679 7.92645 16.2471 8.24752 15.7195 8.3731C15.2404 8.48707 14.7729 8.40634 14.3301 8.23275C13.7234 7.99478 13.4081 7.58269 13.4008 6.99859C13.3951 6.52028 13.5703 6.08365 13.803 5.65995C13.8674 5.54281 13.9376 5.42805 14.0081 5.30696C12.6472 4.78934 11.6251 3.98019 10.996 2.78613C10.3705 3.98019 9.34836 4.79013 8.00847 5.29878C8.00695 5.32147 8.0027 5.33149 8.00665 5.33835C8.03307 5.38558 8.06041 5.43254 8.08836 5.47897C8.30525 5.83856 8.48538 6.20976 8.56435 6.61288C8.6728 7.16743 8.56891 7.66685 8.03824 8.04148C7.73995 8.25227 7.38303 8.34856 7.00818 8.40001C5.90826 8.55092 5.34266 7.92803 5.14552 7.20753C5.08294 6.97827 5.05986 6.74294 5.0389 6.50313C3.92652 6.77275 2.8269 6.78937 1.71422 6.46989C2.06173 7.50829 2.18141 8.52216 1.64648 9.53102C1.70633 9.54579 1.7531 9.56056 1.8011 9.56874C2.19083 9.6347 2.55534 9.75843 2.90436 9.92121C4.14371 10.4992 4.51612 12.1302 3.20964 12.9961C3.05837 13.0963 2.89495 13.1836 2.74306 13.2921C3.08176 14.0864 3.20569 14.8932 2.98638 15.7385C3.94748 15.7324 4.85451 15.8643 5.66404 16.3128C7.09962 15.4026 8.61356 15.214 10.2505 15.9087C9.92612 15.2196 9.53092 14.5972 9.08743 13.9975C7.9945 12.5201 6.6862 11.1955 5.26732 9.94997C5.17042 9.86475 5.07201 9.78112 4.97419 9.6967C4.98847 9.68562 5.00244 9.6748 5.01672 9.66372C7.20441 11.3258 9.21683 13.1216 10.7104 15.3312C10.8034 12.2998 10.8966 9.26825 10.9878 6.29418C11.0838 6.98487 10.9951 7.73729 11.067 8.48602C11.0923 8.74694 11.0752 9.0097 11.0892 9.27247C11.1372 10.1724 11.156 11.0736 11.184 11.9743C11.218 13.0728 11.2502 14.1711 11.2845 15.2697C11.2851 15.2911 11.2666 15.324 11.324 15.3351C12.0105 14.2445 12.869 13.2562 13.834 12.3402C15.2827 10.9646 16.6781 9.81225 16.8923 9.7798C16.8892 9.82017 16.8504 9.83863 16.823 9.86264C16.6314 10.0294 16.4467 10.2017 16.2559 10.3689C15.8045 10.7652 15.3771 11.1828 14.9634 11.6099C14.0956 12.5056 13.2769 13.4327 12.5971 14.446C12.3778 14.7729 12.1797 15.1106 11.9789 15.4464C11.8939 15.5886 11.8274 15.739 11.7405 15.9095C13.3896 15.2164 14.9084 15.4003 16.3306 16.3144C17.1465 15.8612 18.0435 15.7319 19.005 15.738C18.775 14.8845 18.9193 14.0756 19.248 13.2842C19.1511 13.2293 19.0706 13.1847 18.9913 13.1383C18.5839 12.8992 18.2662 12.5958 18.0879 12.1914C17.7301 11.3804 18.1383 10.2721 19.3184 9.8112V9.81014Z" fill="url(#paint0_radial_671_276)"/>
<path d="M11.1085 18.3344C11.0742 18.1328 11.0401 17.9315 11.0061 17.73C10.8737 18.3476 10.8518 18.9847 10.394 19.5132C10.5963 19.6846 10.8014 19.858 10.9991 20.0255C11.1896 19.8601 11.3919 19.6846 11.6057 19.4992C11.432 19.3443 11.3412 19.1504 11.2692 18.948C11.1975 18.747 11.1443 18.5426 11.1088 18.3344H11.1085Z" fill="#927443"/>
</g>
<defs>
<radialGradient id="paint0_radial_671_276" cx="0" cy="0" r="1" gradientUnits="userSpaceOnUse" gradientTransform="translate(10.9987 10.3417) rotate(180) scale(10.7851 8.52398)">
<stop stop-color="#EBD491"/>
<stop offset="0.19" stop-color="#E9D18D"/>
<stop offset="0.33" stop-color="#E3C884"/>
<stop offset="0.46" stop-color="#D9BA73"/>
<stop offset="0.5" stop-color="#D5B46D"/>
<stop offset="0.59" stop-color="#CCAB67"/>
<stop offset="0.73" stop-color="#B39458"/>
<stop offset="0.88" stop-color="#927443"/>
</radialGradient>
<clipPath id="clip0_671_276">
<rect width="22" height="21" fill="white"/>
</clipPath>
</defs>
</svg>
