<svg width="26" height="25" viewBox="0 0 26 25" fill="none" xmlns="http://www.w3.org/2000/svg">
<mask id="path-1-outside-1_671_276" maskUnits="userSpaceOnUse" x="0" y="0" width="26" height="25" fill="black">
<rect fill="white" width="26" height="25"/>
<path d="M12.9761 23C12.8965 22.8924 12.7796 22.8148 12.6778 22.7256C12.2541 22.3539 11.8267 21.9851 11.4008 21.6149C11.3656 21.5843 11.3322 21.5519 11.2924 21.5152C11.3413 21.4751 11.3817 21.4363 11.4288 21.4049C11.8723 21.1087 12.049 20.6929 12.1274 20.233C12.1736 19.9629 12.1958 19.6911 12.1815 19.4181C12.1672 19.1461 12.1478 18.8741 12.0891 18.6058C10.9929 17.9784 9.19612 17.8594 7.7092 19.1946C7.64875 19.1519 7.58527 19.1107 7.52664 19.0651C7.01511 18.6686 6.39726 18.5034 5.73262 18.4343C5.10748 18.3694 4.49176 18.4245 3.87877 18.5308C3.82014 18.5411 3.75969 18.5443 3.67403 18.5535C3.75453 18.4251 3.8168 18.3079 3.89669 18.2005C4.39152 17.5341 4.41582 16.8173 4.2129 16.0731C4.10689 15.6842 3.93922 15.3164 3.71504 14.955C3.85659 14.9004 3.98842 14.8487 4.12086 14.798C4.34352 14.7128 4.55008 14.6052 4.74236 14.4746C5.58834 13.901 5.29733 12.9405 4.63696 12.5658C4.24267 12.3421 3.80526 12.2392 3.34658 12.1814C2.97052 12.1342 2.59142 12.1696 2.18864 12.1495C2.34295 11.9786 2.48207 11.8195 2.62727 11.6646C3.01882 11.2478 3.20199 10.7655 3.2278 10.2336C3.26821 9.39864 3.01882 8.61983 2.6054 7.87612C2.40674 7.51916 2.18955 7.16986 2 6.8013C2.32928 6.99178 2.6622 7.17725 2.98662 7.3738C3.45988 7.66057 3.96868 7.87401 4.53975 7.96265C5.54338 8.11883 6.51025 7.99985 7.44645 7.66216C7.59438 7.6086 7.7411 7.55241 7.90513 7.4912C7.87688 7.71439 7.84711 7.91859 7.82645 8.12332C7.78818 8.50296 7.81491 8.87811 7.96011 9.24087C8.13386 9.67486 8.43671 9.82313 8.95645 9.73527C8.97133 9.73264 8.98682 9.73263 9.00171 9.73C9.69702 9.60732 9.95339 9.2625 9.79726 8.6602C9.66664 8.1555 9.39083 7.70991 9.05578 7.28858C8.96435 7.17329 8.86836 7.06064 8.76356 6.93322C8.90693 6.89945 9.03786 6.87201 9.16635 6.83798C11.0275 6.34225 12.1879 5.27694 12.6107 3.62198C12.7398 3.11702 12.8397 2.60679 12.954 2.09893C12.9612 2.06596 12.9758 2.0343 13.0138 2C13.0615 2.20816 13.1067 2.41658 13.1572 2.6242C13.2914 3.17665 13.3567 3.74466 13.5934 4.27494C14.2085 5.65209 15.364 6.50398 16.9982 6.88019C17.0708 6.89681 17.1431 6.91422 17.2285 6.93453C17.1158 7.07199 17.0074 7.1973 16.9068 7.32737C16.5812 7.74843 16.3063 8.19086 16.1908 8.69423C16.0569 9.2778 16.3035 9.5994 16.9733 9.72762C17.1276 9.75717 17.2844 9.77379 17.4402 9.75189C17.6838 9.7176 17.8473 9.58727 17.9563 9.40075C18.0985 9.1575 18.148 8.89421 18.1708 8.62616C18.2027 8.2518 18.1437 7.88166 18.0878 7.48724C18.2582 7.55188 18.4098 7.61282 18.5641 7.66743C19.6288 8.04364 20.7181 8.15445 21.8384 7.88139C22.1801 7.79802 22.4985 7.66611 22.7946 7.49489C23.1925 7.26458 23.5902 7.03426 23.9999 6.79708C24.0018 6.8662 23.9589 6.90683 23.9337 6.95168C23.6385 7.47326 23.2894 7.97268 23.0771 8.52881C22.8772 9.05224 22.7436 9.58569 22.7585 10.1397C22.774 10.717 22.9574 11.2446 23.393 11.6947C23.5312 11.8377 23.6594 11.9878 23.8119 12.1561C23.5188 12.1561 23.2576 12.1487 22.9972 12.1577C22.5036 12.1746 22.027 12.2603 21.5808 12.4524C21.0677 12.6735 20.7828 13.0354 20.7284 13.5269C20.6953 13.8269 20.8269 14.0857 21.0544 14.3084C21.298 14.5469 21.6081 14.7004 21.9407 14.8241C22.0507 14.865 22.1598 14.9078 22.2807 14.9542C21.9237 15.5238 21.7166 16.1211 21.6613 16.7593C21.6036 17.426 21.9201 17.9871 22.3399 18.5588C22.048 18.5179 21.8031 18.4776 21.5565 18.4501C20.7424 18.3594 19.9432 18.3997 19.1741 18.6744C18.8372 18.7947 18.5565 18.9881 18.2838 19.2039C17.5763 18.5599 16.7327 18.1747 15.7042 18.1512C15.0569 18.1364 14.4612 18.3055 13.9059 18.5994C13.8142 19.0809 13.7932 19.5621 13.8406 20.0455C13.8592 20.2338 13.9014 20.4185 13.9576 20.6011C14.0751 20.9831 14.3406 21.2733 14.7455 21.5271C14.1565 22.026 13.5815 22.5127 13.0068 22.9997H12.9764L12.9761 23ZM12.7109 17.3305C12.8039 14.2991 12.8971 11.2676 12.9883 8.29348C13.0843 8.98417 12.9956 9.73659 13.0676 10.4853C13.0928 10.7462 13.0758 11.009 13.0897 11.2718C13.1377 12.1717 13.1566 13.0729 13.1845 13.9736C13.2185 15.0721 13.2507 16.1704 13.2851 17.269C13.2857 17.2904 13.2671 17.3233 13.3245 17.3344C14.011 16.2438 14.8695 15.2555 15.8345 14.3395C17.2832 12.9639 18.6786 11.8116 18.8928 11.7791C18.8898 11.8195 18.8509 11.8379 18.8235 11.8619C18.6319 12.0287 18.4472 12.201 18.2564 12.3682C17.805 12.7645 17.3776 13.1821 16.9639 13.6092C16.0961 14.5049 15.2774 15.432 14.5976 16.4453C14.3783 16.7722 14.1802 17.1099 13.9795 17.4457C13.8944 17.5879 13.8279 17.7383 13.741 17.9088C15.3901 17.2157 16.9089 17.3996 18.3311 18.3137C19.147 17.8605 20.0441 17.7312 21.0055 17.7373C20.7755 16.8838 20.9198 16.0749 21.2485 15.2835C21.1516 15.2286 21.0711 15.184 20.9918 15.1376C20.5844 14.8985 20.2667 14.5951 20.0884 14.1907C19.7306 13.3797 20.1388 12.2714 21.3189 11.8105C21.6476 11.682 21.9954 11.6147 22.3511 11.533C21.8098 10.5281 21.9374 9.50944 22.2782 8.46681C21.1586 8.79554 20.0602 8.76203 18.9739 8.50639C18.9283 8.55915 18.939 8.60005 18.9362 8.63856C18.9153 8.9285 18.8621 9.21211 18.7491 9.48728C18.5684 9.92681 18.2476 10.2479 17.72 10.3735C17.2409 10.4874 16.7735 10.4067 16.3306 10.2331C15.724 9.99514 15.4087 9.58305 15.4014 8.99895C15.3956 8.52064 15.5709 8.08401 15.8035 7.66031C15.8679 7.54317 15.9381 7.42841 16.0086 7.30732C14.6477 6.7897 13.6256 5.98055 12.9965 4.78649C12.371 5.98055 11.3489 6.79049 10.009 7.29914C10.0075 7.32183 10.0032 7.33185 10.0072 7.33871C10.0336 7.38593 10.0609 7.43289 10.0889 7.47933C10.3058 7.83892 10.4859 8.21012 10.5649 8.61324C10.6733 9.16779 10.5694 9.66721 10.0388 10.0418C9.74046 10.2526 9.38354 10.3489 9.00869 10.4004C7.90877 10.5513 7.34317 9.92839 7.14603 9.20789C7.08345 8.97863 7.06037 8.7433 7.03941 8.50349C5.92703 8.77311 4.82741 8.78973 3.71474 8.47024C4.06224 9.50865 4.18192 10.5225 3.647 11.5314C3.70684 11.5462 3.75362 11.5609 3.80161 11.5691C4.19134 11.6351 4.55585 11.7588 4.90487 11.9216C6.14422 12.4996 6.51663 14.1306 5.21015 14.9964C5.05888 15.0967 4.89546 15.184 4.74358 15.2924C5.08227 16.0868 5.20621 16.8936 4.98689 17.7389C5.94799 17.7328 6.85502 17.8647 7.66455 18.3132C9.10013 17.403 10.6141 17.2144 12.251 17.909C11.9266 17.2199 11.5314 16.5976 11.0879 15.9979C9.99501 14.5205 8.68671 13.1958 7.26784 11.9503C7.17094 11.8651 7.07252 11.7815 6.97471 11.6971C6.98898 11.686 7.00296 11.6752 7.01723 11.6641C9.20492 13.3262 11.2173 15.122 12.7109 17.3315V17.3305ZM13.6055 21.4994C13.4318 21.3445 13.3409 21.1506 13.269 20.9483C13.1973 20.7472 13.1441 20.5428 13.1086 20.3346C13.0742 20.133 13.0402 19.9317 13.0062 19.7302C12.8738 20.3478 12.8519 20.9849 12.3941 21.5134C12.5964 21.6848 12.8015 21.8582 12.9992 22.0257C13.1897 21.8603 13.392 21.6848 13.6058 21.4994H13.6055Z"/>
</mask>
<path d="M12.9761 23C12.8965 22.8924 12.7796 22.8148 12.6778 22.7256C12.2541 22.3539 11.8267 21.9851 11.4008 21.6149C11.3656 21.5843 11.3322 21.5519 11.2924 21.5152C11.3413 21.4751 11.3817 21.4363 11.4288 21.4049C11.8723 21.1087 12.049 20.6929 12.1274 20.233C12.1736 19.9629 12.1958 19.6911 12.1815 19.4181C12.1672 19.1461 12.1478 18.8741 12.0891 18.6058C10.9929 17.9784 9.19612 17.8594 7.7092 19.1946C7.64875 19.1519 7.58527 19.1107 7.52664 19.0651C7.01511 18.6686 6.39726 18.5034 5.73262 18.4343C5.10748 18.3694 4.49176 18.4245 3.87877 18.5308C3.82014 18.5411 3.75969 18.5443 3.67403 18.5535C3.75453 18.4251 3.8168 18.3079 3.89669 18.2005C4.39152 17.5341 4.41582 16.8173 4.2129 16.0731C4.10689 15.6842 3.93922 15.3164 3.71504 14.955C3.85659 14.9004 3.98842 14.8487 4.12086 14.798C4.34352 14.7128 4.55008 14.6052 4.74236 14.4746C5.58834 13.901 5.29733 12.9405 4.63696 12.5658C4.24267 12.3421 3.80526 12.2392 3.34658 12.1814C2.97052 12.1342 2.59142 12.1696 2.18864 12.1495C2.34295 11.9786 2.48207 11.8195 2.62727 11.6646C3.01882 11.2478 3.20199 10.7655 3.2278 10.2336C3.26821 9.39864 3.01882 8.61983 2.6054 7.87612C2.40674 7.51916 2.18955 7.16986 2 6.8013C2.32928 6.99178 2.6622 7.17725 2.98662 7.3738C3.45988 7.66057 3.96868 7.87401 4.53975 7.96265C5.54338 8.11883 6.51025 7.99985 7.44645 7.66216C7.59438 7.6086 7.7411 7.55241 7.90513 7.4912C7.87688 7.71439 7.84711 7.91859 7.82645 8.12332C7.78818 8.50296 7.81491 8.87811 7.96011 9.24087C8.13386 9.67486 8.43671 9.82313 8.95645 9.73527C8.97133 9.73264 8.98682 9.73263 9.00171 9.73C9.69702 9.60732 9.95339 9.2625 9.79726 8.6602C9.66664 8.1555 9.39083 7.70991 9.05578 7.28858C8.96435 7.17329 8.86836 7.06064 8.76356 6.93322C8.90693 6.89945 9.03786 6.87201 9.16635 6.83798C11.0275 6.34225 12.1879 5.27694 12.6107 3.62198C12.7398 3.11702 12.8397 2.60679 12.954 2.09893C12.9612 2.06596 12.9758 2.0343 13.0138 2C13.0615 2.20816 13.1067 2.41658 13.1572 2.6242C13.2914 3.17665 13.3567 3.74466 13.5934 4.27494C14.2085 5.65209 15.364 6.50398 16.9982 6.88019C17.0708 6.89681 17.1431 6.91422 17.2285 6.93453C17.1158 7.07199 17.0074 7.1973 16.9068 7.32737C16.5812 7.74843 16.3063 8.19086 16.1908 8.69423C16.0569 9.2778 16.3035 9.5994 16.9733 9.72762C17.1276 9.75717 17.2844 9.77379 17.4402 9.75189C17.6838 9.7176 17.8473 9.58727 17.9563 9.40075C18.0985 9.1575 18.148 8.89421 18.1708 8.62616C18.2027 8.2518 18.1437 7.88166 18.0878 7.48724C18.2582 7.55188 18.4098 7.61282 18.5641 7.66743C19.6288 8.04364 20.7181 8.15445 21.8384 7.88139C22.1801 7.79802 22.4985 7.66611 22.7946 7.49489C23.1925 7.26458 23.5902 7.03426 23.9999 6.79708C24.0018 6.8662 23.9589 6.90683 23.9337 6.95168C23.6385 7.47326 23.2894 7.97268 23.0771 8.52881C22.8772 9.05224 22.7436 9.58569 22.7585 10.1397C22.774 10.717 22.9574 11.2446 23.393 11.6947C23.5312 11.8377 23.6594 11.9878 23.8119 12.1561C23.5188 12.1561 23.2576 12.1487 22.9972 12.1577C22.5036 12.1746 22.027 12.2603 21.5808 12.4524C21.0677 12.6735 20.7828 13.0354 20.7284 13.5269C20.6953 13.8269 20.8269 14.0857 21.0544 14.3084C21.298 14.5469 21.6081 14.7004 21.9407 14.8241C22.0507 14.865 22.1598 14.9078 22.2807 14.9542C21.9237 15.5238 21.7166 16.1211 21.6613 16.7593C21.6036 17.426 21.9201 17.9871 22.3399 18.5588C22.048 18.5179 21.8031 18.4776 21.5565 18.4501C20.7424 18.3594 19.9432 18.3997 19.1741 18.6744C18.8372 18.7947 18.5565 18.9881 18.2838 19.2039C17.5763 18.5599 16.7327 18.1747 15.7042 18.1512C15.0569 18.1364 14.4612 18.3055 13.9059 18.5994C13.8142 19.0809 13.7932 19.5621 13.8406 20.0455C13.8592 20.2338 13.9014 20.4185 13.9576 20.6011C14.0751 20.9831 14.3406 21.2733 14.7455 21.5271C14.1565 22.026 13.5815 22.5127 13.0068 22.9997H12.9764L12.9761 23ZM12.7109 17.3305C12.8039 14.2991 12.8971 11.2676 12.9883 8.29348C13.0843 8.98417 12.9956 9.73659 13.0676 10.4853C13.0928 10.7462 13.0758 11.009 13.0897 11.2718C13.1377 12.1717 13.1566 13.0729 13.1845 13.9736C13.2185 15.0721 13.2507 16.1704 13.2851 17.269C13.2857 17.2904 13.2671 17.3233 13.3245 17.3344C14.011 16.2438 14.8695 15.2555 15.8345 14.3395C17.2832 12.9639 18.6786 11.8116 18.8928 11.7791C18.8898 11.8195 18.8509 11.8379 18.8235 11.8619C18.6319 12.0287 18.4472 12.201 18.2564 12.3682C17.805 12.7645 17.3776 13.1821 16.9639 13.6092C16.0961 14.5049 15.2774 15.432 14.5976 16.4453C14.3783 16.7722 14.1802 17.1099 13.9795 17.4457C13.8944 17.5879 13.8279 17.7383 13.741 17.9088C15.3901 17.2157 16.9089 17.3996 18.3311 18.3137C19.147 17.8605 20.0441 17.7312 21.0055 17.7373C20.7755 16.8838 20.9198 16.0749 21.2485 15.2835C21.1516 15.2286 21.0711 15.184 20.9918 15.1376C20.5844 14.8985 20.2667 14.5951 20.0884 14.1907C19.7306 13.3797 20.1388 12.2714 21.3189 11.8105C21.6476 11.682 21.9954 11.6147 22.3511 11.533C21.8098 10.5281 21.9374 9.50944 22.2782 8.46681C21.1586 8.79554 20.0602 8.76203 18.9739 8.50639C18.9283 8.55915 18.939 8.60005 18.9362 8.63856C18.9153 8.9285 18.8621 9.21211 18.7491 9.48728C18.5684 9.92681 18.2476 10.2479 17.72 10.3735C17.2409 10.4874 16.7735 10.4067 16.3306 10.2331C15.724 9.99514 15.4087 9.58305 15.4014 8.99895C15.3956 8.52064 15.5709 8.08401 15.8035 7.66031C15.8679 7.54317 15.9381 7.42841 16.0086 7.30732C14.6477 6.7897 13.6256 5.98055 12.9965 4.78649C12.371 5.98055 11.3489 6.79049 10.009 7.29914C10.0075 7.32183 10.0032 7.33185 10.0072 7.33871C10.0336 7.38593 10.0609 7.43289 10.0889 7.47933C10.3058 7.83892 10.4859 8.21012 10.5649 8.61324C10.6733 9.16779 10.5694 9.66721 10.0388 10.0418C9.74046 10.2526 9.38354 10.3489 9.00869 10.4004C7.90877 10.5513 7.34317 9.92839 7.14603 9.20789C7.08345 8.97863 7.06037 8.7433 7.03941 8.50349C5.92703 8.77311 4.82741 8.78973 3.71474 8.47024C4.06224 9.50865 4.18192 10.5225 3.647 11.5314C3.70684 11.5462 3.75362 11.5609 3.80161 11.5691C4.19134 11.6351 4.55585 11.7588 4.90487 11.9216C6.14422 12.4996 6.51663 14.1306 5.21015 14.9964C5.05888 15.0967 4.89546 15.184 4.74358 15.2924C5.08227 16.0868 5.20621 16.8936 4.98689 17.7389C5.94799 17.7328 6.85502 17.8647 7.66455 18.3132C9.10013 17.403 10.6141 17.2144 12.251 17.909C11.9266 17.2199 11.5314 16.5976 11.0879 15.9979C9.99501 14.5205 8.68671 13.1958 7.26784 11.9503C7.17094 11.8651 7.07252 11.7815 6.97471 11.6971C6.98898 11.686 7.00296 11.6752 7.01723 11.6641C9.20492 13.3262 11.2173 15.122 12.7109 17.3315V17.3305ZM13.6055 21.4994C13.4318 21.3445 13.3409 21.1506 13.269 20.9483C13.1973 20.7472 13.1441 20.5428 13.1086 20.3346C13.0742 20.133 13.0402 19.9317 13.0062 19.7302C12.8738 20.3478 12.8519 20.9849 12.3941 21.5134C12.5964 21.6848 12.8015 21.8582 12.9992 22.0257C13.1897 21.8603 13.392 21.6848 13.6058 21.4994H13.6055Z" fill="#222222"/>
<path d="M12.9761 23C12.8965 22.8924 12.7796 22.8148 12.6778 22.7256C12.2541 22.3539 11.8267 21.9851 11.4008 21.6149C11.3656 21.5843 11.3322 21.5519 11.2924 21.5152C11.3413 21.4751 11.3817 21.4363 11.4288 21.4049C11.8723 21.1087 12.049 20.6929 12.1274 20.233C12.1736 19.9629 12.1958 19.6911 12.1815 19.4181C12.1672 19.1461 12.1478 18.8741 12.0891 18.6058C10.9929 17.9784 9.19612 17.8594 7.7092 19.1946C7.64875 19.1519 7.58527 19.1107 7.52664 19.0651C7.01511 18.6686 6.39726 18.5034 5.73262 18.4343C5.10748 18.3694 4.49176 18.4245 3.87877 18.5308C3.82014 18.5411 3.75969 18.5443 3.67403 18.5535C3.75453 18.4251 3.8168 18.3079 3.89669 18.2005C4.39152 17.5341 4.41582 16.8173 4.2129 16.0731C4.10689 15.6842 3.93922 15.3164 3.71504 14.955C3.85659 14.9004 3.98842 14.8487 4.12086 14.798C4.34352 14.7128 4.55008 14.6052 4.74236 14.4746C5.58834 13.901 5.29733 12.9405 4.63696 12.5658C4.24267 12.3421 3.80526 12.2392 3.34658 12.1814C2.97052 12.1342 2.59142 12.1696 2.18864 12.1495C2.34295 11.9786 2.48207 11.8195 2.62727 11.6646C3.01882 11.2478 3.20199 10.7655 3.2278 10.2336C3.26821 9.39864 3.01882 8.61983 2.6054 7.87612C2.40674 7.51916 2.18955 7.16986 2 6.8013C2.32928 6.99178 2.6622 7.17725 2.98662 7.3738C3.45988 7.66057 3.96868 7.87401 4.53975 7.96265C5.54338 8.11883 6.51025 7.99985 7.44645 7.66216C7.59438 7.6086 7.7411 7.55241 7.90513 7.4912C7.87688 7.71439 7.84711 7.91859 7.82645 8.12332C7.78818 8.50296 7.81491 8.87811 7.96011 9.24087C8.13386 9.67486 8.43671 9.82313 8.95645 9.73527C8.97133 9.73264 8.98682 9.73263 9.00171 9.73C9.69702 9.60732 9.95339 9.2625 9.79726 8.6602C9.66664 8.1555 9.39083 7.70991 9.05578 7.28858C8.96435 7.17329 8.86836 7.06064 8.76356 6.93322C8.90693 6.89945 9.03786 6.87201 9.16635 6.83798C11.0275 6.34225 12.1879 5.27694 12.6107 3.62198C12.7398 3.11702 12.8397 2.60679 12.954 2.09893C12.9612 2.06596 12.9758 2.0343 13.0138 2C13.0615 2.20816 13.1067 2.41658 13.1572 2.6242C13.2914 3.17665 13.3567 3.74466 13.5934 4.27494C14.2085 5.65209 15.364 6.50398 16.9982 6.88019C17.0708 6.89681 17.1431 6.91422 17.2285 6.93453C17.1158 7.07199 17.0074 7.1973 16.9068 7.32737C16.5812 7.74843 16.3063 8.19086 16.1908 8.69423C16.0569 9.2778 16.3035 9.5994 16.9733 9.72762C17.1276 9.75717 17.2844 9.77379 17.4402 9.75189C17.6838 9.7176 17.8473 9.58727 17.9563 9.40075C18.0985 9.1575 18.148 8.89421 18.1708 8.62616C18.2027 8.2518 18.1437 7.88166 18.0878 7.48724C18.2582 7.55188 18.4098 7.61282 18.5641 7.66743C19.6288 8.04364 20.7181 8.15445 21.8384 7.88139C22.1801 7.79802 22.4985 7.66611 22.7946 7.49489C23.1925 7.26458 23.5902 7.03426 23.9999 6.79708C24.0018 6.8662 23.9589 6.90683 23.9337 6.95168C23.6385 7.47326 23.2894 7.97268 23.0771 8.52881C22.8772 9.05224 22.7436 9.58569 22.7585 10.1397C22.774 10.717 22.9574 11.2446 23.393 11.6947C23.5312 11.8377 23.6594 11.9878 23.8119 12.1561C23.5188 12.1561 23.2576 12.1487 22.9972 12.1577C22.5036 12.1746 22.027 12.2603 21.5808 12.4524C21.0677 12.6735 20.7828 13.0354 20.7284 13.5269C20.6953 13.8269 20.8269 14.0857 21.0544 14.3084C21.298 14.5469 21.6081 14.7004 21.9407 14.8241C22.0507 14.865 22.1598 14.9078 22.2807 14.9542C21.9237 15.5238 21.7166 16.1211 21.6613 16.7593C21.6036 17.426 21.9201 17.9871 22.3399 18.5588C22.048 18.5179 21.8031 18.4776 21.5565 18.4501C20.7424 18.3594 19.9432 18.3997 19.1741 18.6744C18.8372 18.7947 18.5565 18.9881 18.2838 19.2039C17.5763 18.5599 16.7327 18.1747 15.7042 18.1512C15.0569 18.1364 14.4612 18.3055 13.9059 18.5994C13.8142 19.0809 13.7932 19.5621 13.8406 20.0455C13.8592 20.2338 13.9014 20.4185 13.9576 20.6011C14.0751 20.9831 14.3406 21.2733 14.7455 21.5271C14.1565 22.026 13.5815 22.5127 13.0068 22.9997H12.9764L12.9761 23ZM12.7109 17.3305C12.8039 14.2991 12.8971 11.2676 12.9883 8.29348C13.0843 8.98417 12.9956 9.73659 13.0676 10.4853C13.0928 10.7462 13.0758 11.009 13.0897 11.2718C13.1377 12.1717 13.1566 13.0729 13.1845 13.9736C13.2185 15.0721 13.2507 16.1704 13.2851 17.269C13.2857 17.2904 13.2671 17.3233 13.3245 17.3344C14.011 16.2438 14.8695 15.2555 15.8345 14.3395C17.2832 12.9639 18.6786 11.8116 18.8928 11.7791C18.8898 11.8195 18.8509 11.8379 18.8235 11.8619C18.6319 12.0287 18.4472 12.201 18.2564 12.3682C17.805 12.7645 17.3776 13.1821 16.9639 13.6092C16.0961 14.5049 15.2774 15.432 14.5976 16.4453C14.3783 16.7722 14.1802 17.1099 13.9795 17.4457C13.8944 17.5879 13.8279 17.7383 13.741 17.9088C15.3901 17.2157 16.9089 17.3996 18.3311 18.3137C19.147 17.8605 20.0441 17.7312 21.0055 17.7373C20.7755 16.8838 20.9198 16.0749 21.2485 15.2835C21.1516 15.2286 21.0711 15.184 20.9918 15.1376C20.5844 14.8985 20.2667 14.5951 20.0884 14.1907C19.7306 13.3797 20.1388 12.2714 21.3189 11.8105C21.6476 11.682 21.9954 11.6147 22.3511 11.533C21.8098 10.5281 21.9374 9.50944 22.2782 8.46681C21.1586 8.79554 20.0602 8.76203 18.9739 8.50639C18.9283 8.55915 18.939 8.60005 18.9362 8.63856C18.9153 8.9285 18.8621 9.21211 18.7491 9.48728C18.5684 9.92681 18.2476 10.2479 17.72 10.3735C17.2409 10.4874 16.7735 10.4067 16.3306 10.2331C15.724 9.99514 15.4087 9.58305 15.4014 8.99895C15.3956 8.52064 15.5709 8.08401 15.8035 7.66031C15.8679 7.54317 15.9381 7.42841 16.0086 7.30732C14.6477 6.7897 13.6256 5.98055 12.9965 4.78649C12.371 5.98055 11.3489 6.79049 10.009 7.29914C10.0075 7.32183 10.0032 7.33185 10.0072 7.33871C10.0336 7.38593 10.0609 7.43289 10.0889 7.47933C10.3058 7.83892 10.4859 8.21012 10.5649 8.61324C10.6733 9.16779 10.5694 9.66721 10.0388 10.0418C9.74046 10.2526 9.38354 10.3489 9.00869 10.4004C7.90877 10.5513 7.34317 9.92839 7.14603 9.20789C7.08345 8.97863 7.06037 8.7433 7.03941 8.50349C5.92703 8.77311 4.82741 8.78973 3.71474 8.47024C4.06224 9.50865 4.18192 10.5225 3.647 11.5314C3.70684 11.5462 3.75362 11.5609 3.80161 11.5691C4.19134 11.6351 4.55585 11.7588 4.90487 11.9216C6.14422 12.4996 6.51663 14.1306 5.21015 14.9964C5.05888 15.0967 4.89546 15.184 4.74358 15.2924C5.08227 16.0868 5.20621 16.8936 4.98689 17.7389C5.94799 17.7328 6.85502 17.8647 7.66455 18.3132C9.10013 17.403 10.6141 17.2144 12.251 17.909C11.9266 17.2199 11.5314 16.5976 11.0879 15.9979C9.99501 14.5205 8.68671 13.1958 7.26784 11.9503C7.17094 11.8651 7.07252 11.7815 6.97471 11.6971C6.98898 11.686 7.00296 11.6752 7.01723 11.6641C9.20492 13.3262 11.2173 15.122 12.7109 17.3315V17.3305ZM13.6055 21.4994C13.4318 21.3445 13.3409 21.1506 13.269 20.9483C13.1973 20.7472 13.1441 20.5428 13.1086 20.3346C13.0742 20.133 13.0402 19.9317 13.0062 19.7302C12.8738 20.3478 12.8519 20.9849 12.3941 21.5134C12.5964 21.6848 12.8015 21.8582 12.9992 22.0257C13.1897 21.8603 13.392 21.6848 13.6058 21.4994H13.6055Z" stroke="#F4F4F4" stroke-opacity="0.9" stroke-width="2.49" stroke-linejoin="round" mask="url(#path-1-outside-1_671_276)"/>
<path d="M21.3184 11.8101C21.6471 11.6817 21.9949 11.6144 22.3506 11.5326C21.8093 10.5277 21.9369 9.50908 22.2777 8.46646C21.158 8.79518 20.0596 8.76167 18.9734 8.50603C18.9278 8.55879 18.9385 8.59969 18.9357 8.6382C18.9148 8.92814 18.8616 9.21175 18.7486 9.48692C18.5679 9.92645 18.2471 10.2475 17.7195 10.3731C17.2404 10.4871 16.7729 10.4063 16.3301 10.2327C15.7234 9.99478 15.4081 9.58269 15.4008 8.99859C15.3951 8.52028 15.5703 8.08365 15.803 7.65995C15.8674 7.54281 15.9376 7.42805 16.0081 7.30696C14.6472 6.78934 13.6251 5.98019 12.996 4.78613C12.3705 5.98019 11.3484 6.79013 10.0085 7.29878C10.007 7.32147 10.0027 7.33149 10.0066 7.33835C10.0331 7.38558 10.0604 7.43254 10.0884 7.47897C10.3052 7.83856 10.4854 8.20976 10.5644 8.61288C10.6728 9.16743 10.5689 9.66685 10.0382 10.0415C9.73995 10.2523 9.38303 10.3486 9.00818 10.4C7.90826 10.5509 7.34266 9.92803 7.14552 9.20753C7.08294 8.97827 7.05986 8.74294 7.0389 8.50313C5.92652 8.77275 4.8269 8.78937 3.71422 8.46989C4.06173 9.50829 4.18141 10.5222 3.64648 11.531C3.70633 11.5458 3.7531 11.5606 3.8011 11.5687C4.19083 11.6347 4.55534 11.7584 4.90436 11.9212C6.14371 12.4992 6.51612 14.1302 5.20964 14.9961C5.05837 15.0963 4.89495 15.1836 4.74306 15.2921C5.08176 16.0864 5.20569 16.8932 4.98638 17.7385C5.94748 17.7324 6.85451 17.8643 7.66404 18.3128C9.09962 17.4026 10.6136 17.214 12.2505 17.9087C11.9261 17.2196 11.5309 16.5972 11.0874 15.9975C9.9945 14.5201 8.6862 13.1955 7.26732 11.95C7.17042 11.8648 7.07201 11.7811 6.97419 11.6967C6.98847 11.6856 7.00244 11.6748 7.01672 11.6637C9.20441 13.3258 11.2168 15.1216 12.7104 17.3312C12.8034 14.2998 12.8966 11.2682 12.9878 8.29418C13.0838 8.98487 12.9951 9.73729 13.067 10.486C13.0923 10.7469 13.0752 11.0097 13.0892 11.2725C13.1372 12.1724 13.156 13.0736 13.184 13.9743C13.218 15.0728 13.2502 16.1711 13.2845 17.2697C13.2851 17.2911 13.2666 17.324 13.324 17.3351C14.0105 16.2445 14.869 15.2562 15.834 14.3402C17.2827 12.9646 18.6781 11.8123 18.8923 11.7798C18.8892 11.8202 18.8504 11.8386 18.823 11.8626C18.6314 12.0294 18.4467 12.2017 18.2559 12.3689C17.8045 12.7652 17.3771 13.1828 16.9634 13.6099C16.0956 14.5056 15.2769 15.4327 14.5971 16.446C14.3778 16.7729 14.1797 17.1106 13.9789 17.4464C13.8939 17.5886 13.8274 17.739 13.7405 17.9095C15.3896 17.2164 16.9084 17.4003 18.3306 18.3144C19.1465 17.8612 20.0435 17.7319 21.005 17.738C20.775 16.8845 20.9193 16.0756 21.248 15.2842C21.1511 15.2293 21.0706 15.1847 20.9913 15.1383C20.5839 14.8992 20.2662 14.5958 20.0879 14.1914C19.7301 13.3804 20.1383 12.2721 21.3184 11.8112V11.8101Z" fill="url(#paint0_radial_671_276)"/>
<path d="M13.1085 20.3344C13.0742 20.1328 13.0401 19.9315 13.0061 19.73C12.8737 20.3476 12.8518 20.9847 12.394 21.5132C12.5963 21.6846 12.8014 21.858 12.9991 22.0255C13.1896 21.8601 13.3919 21.6846 13.6057 21.4992C13.432 21.3443 13.3412 21.1504 13.2692 20.948C13.1975 20.747 13.1443 20.5426 13.1088 20.3344H13.1085Z" fill="#927443"/>
<defs>
<radialGradient id="paint0_radial_671_276" cx="0" cy="0" r="1" gradientUnits="userSpaceOnUse" gradientTransform="translate(12.9987 12.3417) rotate(180) scale(10.7851 8.52398)">
<stop stop-color="#EBD491"/>
<stop offset="0.19" stop-color="#E9D18D"/>
<stop offset="0.33" stop-color="#E3C884"/>
<stop offset="0.46" stop-color="#D9BA73"/>
<stop offset="0.5" stop-color="#D5B46D"/>
<stop offset="0.59" stop-color="#CCAB67"/>
<stop offset="0.73" stop-color="#B39458"/>
<stop offset="0.88" stop-color="#927443"/>
</radialGradient>
</defs>
</svg>
