<svg width="24" height="25" viewBox="0 0 24 25" fill="none" xmlns="http://www.w3.org/2000/svg">
<g clip-path="url(#clip0_606_196)">
<path d="M23.4529 21.184L16.7996 14.5304L16.1951 15.1352L14.7884 13.7282C15.9761 12.2885 16.6905 10.444 16.6905 8.43596C16.6905 3.84183 12.9529 0.104492 8.35881 0.104492C3.76468 0.104492 0.0273438 3.84209 0.0273438 8.43596C0.0273438 13.0301 3.76468 16.7672 8.35881 16.7672C10.3308 16.7672 12.1433 16.0773 13.5713 14.9282L14.9871 16.3437L14.3825 16.948L21.0359 23.6013C21.3695 23.9349 21.8071 24.1018 22.2444 24.1018C22.6817 24.1018 23.1188 23.9349 23.4527 23.6013C24.1204 22.9336 24.1204 21.8514 23.4529 21.184ZM1.73668 8.43569C1.73668 4.78423 4.70734 1.81329 8.35881 1.81329C12.0105 1.81329 14.9812 4.78423 14.9812 8.43569C14.9812 12.0872 12.0105 15.0578 8.35881 15.0578C4.70734 15.0578 1.73668 12.0874 1.73668 8.43569Z" fill="#4E5053" fill-opacity="0.5"/>
<path d="M8.4 3.4668C8.72429 4.12856 9.12116 4.77128 9.5918 5.39494C9.792 5.65683 10.0214 5.93056 10.2802 6.21376C10.5354 6.49695 10.8187 6.78028 11.1254 7.05881C11.4345 7.33735 11.7728 7.60149 12.1417 7.85152C12.5105 8.10141 12.9072 8.32999 13.3335 8.53473C12.7072 8.8752 12.0866 9.28934 11.4696 9.77967C11.2134 9.9844 10.9452 10.22 10.6642 10.489C10.3857 10.7557 10.1117 11.0484 9.84363 11.3649C9.57555 11.6862 9.31796 12.0315 9.07098 12.4075C8.82504 12.7813 8.60152 13.1788 8.40013 13.6001C8.08633 12.9741 7.69535 12.3552 7.22589 11.7411C6.82312 11.2175 6.31396 10.6676 5.69814 10.0867C5.08351 9.50593 4.33903 8.98936 3.4668 8.53473C4.09427 8.20385 4.71481 7.79451 5.33049 7.30644C5.85616 6.88511 6.39821 6.35909 6.95663 5.72822C7.51611 5.09736 7.99605 4.34515 8.4 3.4668ZM7.67884 10.5127C7.97037 10.8889 8.21028 11.2697 8.4 11.6553C8.64698 11.1197 8.94323 10.6603 9.28848 10.2747C9.63504 9.88663 9.97216 9.56294 10.2964 9.30106C10.6652 9.00827 11.0504 8.75119 11.4543 8.5322C10.917 8.28457 10.4604 7.98233 10.0869 7.63C9.71116 7.27767 9.395 6.93733 9.13872 6.60645C8.84719 6.23281 8.60021 5.83519 8.4 5.41386C8.1542 5.95894 7.85913 6.42555 7.51965 6.81118C7.1778 7.19921 6.84539 7.5205 6.52098 7.78478C6.1511 8.07997 5.76588 8.32746 5.36311 8.5346C5.90045 8.81792 6.35825 9.13682 6.73874 9.48915C7.11924 9.84147 7.43304 10.1842 7.67884 10.5127Z" fill="#4E5053" fill-opacity="0.5"/>
</g>
<defs>
<clipPath id="clip0_606_196">
<rect width="24" height="24.2667" fill="white"/>
</clipPath>
</defs>
</svg>
