<svg width="133" height="82" viewBox="0 0 133 82" fill="none" xmlns="http://www.w3.org/2000/svg">
<g clip-path="url(#clip0_571_482)">
<path d="M63.4 0.200976C65.96 -0.0201023 67.08 -0.0201023 69.6 0.221074C81.16 1.28627 93.26 7.85833 108.4 21.2838C109.34 22.1078 110.18 22.8515 110.28 22.9319C110.38 23.0323 109.66 23.9368 108.68 24.9618C100.68 33.3828 95.68 43.7333 94.12 55.1691C93.34 60.8971 93.26 66.002 93.92 70.4235C94.08 71.5691 94.12 72.5137 94.02 72.6142C93.94 72.6946 90.18 74.8451 85.68 77.3774C79.88 80.6534 77.48 81.8995 77.44 81.6985C77.366 81.3858 77.7752 79.7148 78.3178 77.9707L78.3698 77.8045L78.4226 77.6381L78.476 77.4715C78.512 77.3608 78.5482 77.25 78.5848 77.1399L78.6398 76.9751L78.6676 76.8931L78.7232 76.7299C78.7884 76.5404 78.8542 76.3537 78.92 76.1716C80.3 72.3931 83.48 66.4642 85.68 63.5902C85.82 63.4294 85.28 62.6657 83.88 61.0578C83.5498 60.6835 83.2217 60.3073 82.8956 59.9293L82.74 59.7488L82.5848 59.5684C81.8368 58.6969 81.1234 57.8466 80.72 57.3397L79.58 55.9127L80.4 54.8274C81.46 53.4206 82.46 51.4711 83 49.7426C83.62 47.7529 83.78 43.8941 83.32 41.6029C82.58 37.9451 80.62 34.3676 77.96 31.8353C74.5 28.5392 70.52 27.1324 65.32 27.3936C60.6 27.6147 56.52 29.7652 53.48 33.6441C50.96 36.8196 49.66 40.3167 49.46 44.3363C49.26 48.1348 50.2 51.4309 52.34 54.4054L53.42 55.9127L52.88 56.6564C52.08 57.7216 50.54 59.5505 48.72 61.5603L47.14 63.3289L47.7242 64.1117C49.9186 67.0722 52.3838 71.6511 53.88 75.5485C54.118 76.1567 54.4208 77.0762 54.7112 78.0312L54.7622 78.2001C54.7878 78.2847 54.8132 78.3695 54.8382 78.4541L54.8882 78.6233C55.3778 80.286 55.7826 81.8852 55.7 81.9801C55.6608 82.0096 51.6936 79.8145 47.6336 77.5394L46.8876 77.1212C42.9136 74.8909 39.076 72.7099 38.98 72.5941C38.9 72.5137 38.96 71.6294 39.12 70.6446C39.54 67.7304 39.68 62.1632 39.42 58.9877C38.3 46.0044 33.04 34.0662 24.36 24.8211L22.66 23.0323L24.68 21.2436C39.62 7.95882 51.98 1.24607 63.4 0.200976ZM12.8 43.452C24.1 37.0809 25.32 36.4377 25.56 36.7392C26.06 37.3623 27.94 40.8794 28.66 42.5074C31.76 49.4814 33.2 56.0936 33.2 63.3088C33.2 67.6098 33.04 69.1975 32.62 69.0368C31.64 68.6549 0.0400089 50.7274 0.160009 50.6069C0.240009 50.5466 5.92001 47.3108 12.8 43.452ZM106.74 37.9451C107.54 36.5382 107.68 36.3975 108.04 36.5985C108.886 37.0519 114.393 40.1515 120.003 43.3199L120.72 43.7245C126.808 47.1641 132.789 50.5556 132.84 50.6069C132.92 50.6873 125.64 54.9078 116.66 59.9524C114.783 61.0073 112.904 62.0599 111.024 63.1105L110.311 63.5084C104.439 66.787 100.265 69.082 100.22 69.0368C100.02 68.8157 99.82 66.1828 99.82 63.4093C99.78 54.6868 102.16 45.9441 106.74 37.9451Z" fill="#656E7A"/>
</g>
<defs>
<clipPath id="clip0_571_482">
<rect width="133" height="82" fill="white"/>
</clipPath>
</defs>
</svg>
