<svg width="306" height="101" viewBox="0 0 306 101" fill="none" xmlns="http://www.w3.org/2000/svg">
<g filter="url(#filter0_d_569_379)">
<rect x="13" y="13" width="280" height="75" rx="37.5" fill="url(#paint0_linear_569_379)" shape-rendering="crispEdges"/>
<path d="M40.7 67.5L48.25 32H63.5C65.3667 32 66.95 32.4833 68.25 33.45C69.5833 34.4167 70.5833 35.6667 71.25 37.2C71.95 38.7 72.3 40.3 72.3 42C72.3 43.2333 72.1167 44.45 71.75 45.65C71.3833 46.85 70.85 48 70.15 49.1C69.45 50.2 68.6167 51.2 67.65 52.1C66.7167 52.9667 65.6833 53.7 64.55 54.3L69.1 67.5H59.85L55.95 56.05H51.3L48.9 67.5H40.7ZM59.65 48.9C60.1167 48.9 60.6 48.75 61.1 48.45C61.6 48.1167 62.05 47.6833 62.45 47.15C62.8833 46.5833 63.2167 45.9333 63.45 45.2C63.7167 44.4667 63.85 43.6833 63.85 42.85C63.85 42.1167 63.7333 41.4833 63.5 40.95C63.3 40.3833 63.0167 39.95 62.65 39.65C62.2833 39.35 61.8833 39.2 61.45 39.2H54.9L52.85 48.9H59.65ZM77.6801 41.25H85.6801L80.0801 67.5H72.0801L77.6801 41.25ZM79.8301 31H87.8301L86.2801 38.25H78.2801L79.8301 31ZM91.009 41.25H98.009L97.059 45.5C98.2923 44 99.6756 42.8333 101.209 42C102.776 41.1667 104.492 40.75 106.359 40.75C108.259 40.75 109.876 41.2333 111.209 42.2C112.576 43.1333 113.626 44.4 114.359 46C115.092 47.6 115.459 49.4167 115.459 51.45C115.459 53.65 115.076 55.75 114.309 57.75C113.542 59.7167 112.509 61.4833 111.209 63.05C109.909 64.5833 108.409 65.8 106.709 66.7C105.009 67.5667 103.242 68 101.409 68C99.5756 68 98.0423 67.5833 96.809 66.75C95.609 65.8833 94.7923 64.7167 94.359 63.25L91.159 78.15H83.159L91.009 41.25ZM100.109 61.25C101.009 61.25 101.876 61.0167 102.709 60.55C103.542 60.05 104.292 59.4 104.959 58.6C105.626 57.8 106.142 56.9 106.509 55.9C106.909 54.8667 107.109 53.8167 107.109 52.75C107.109 51.75 106.926 50.8667 106.559 50.1C106.192 49.3 105.676 48.6833 105.009 48.25C104.342 47.7833 103.542 47.55 102.609 47.55C102.142 47.55 101.642 47.6333 101.109 47.8C100.609 47.9667 100.109 48.2167 99.609 48.55C99.109 48.85 98.6256 49.2167 98.159 49.65C97.7256 50.0833 97.309 50.5833 96.909 51.15L95.759 56.55C95.9256 57.45 96.1923 58.25 96.559 58.95C96.959 59.65 97.459 60.2167 98.059 60.65C98.6923 61.05 99.3756 61.25 100.109 61.25ZM133.491 41.25H141.491L135.891 67.5H127.891L133.491 41.25ZM135.641 31H143.641L142.091 38.25H134.091L135.641 31ZM144.07 63.05C144.07 62.7167 144.086 62.3833 144.12 62.05C144.153 61.7167 144.203 61.3667 144.27 61L147.17 47.3H144.02L145.37 41.25H148.47L150.27 32.9H158.27L156.47 41.25H161.52L160.22 47.3H155.17L152.87 58.25C152.836 58.3833 152.803 58.5333 152.77 58.7C152.77 58.8333 152.77 58.9667 152.77 59.1C152.77 59.6667 152.92 60.0833 153.22 60.35C153.553 60.5833 153.97 60.7 154.47 60.7C154.836 60.7 155.22 60.65 155.62 60.55C156.02 60.45 156.42 60.3333 156.82 60.2C157.253 60.0667 157.653 59.9167 158.02 59.75L158.12 66.1C157.32 66.4333 156.453 66.75 155.52 67.05C154.62 67.35 153.686 67.5833 152.72 67.75C151.786 67.9167 150.853 68 149.92 68C148.253 68 146.853 67.6167 145.72 66.85C144.62 66.0833 144.07 64.8167 144.07 63.05ZM164.9 53.4L169.45 31.65H177.45L172.9 53.4H164.9ZM161.85 67.5L163.65 59.2H171.65L169.85 67.5H161.85Z" fill="white"/>
<path d="M208 30.5001L228.373 51.161L208 71.7885C212.225 71.7624 216.447 71.7494 220.664 71.7494L240.983 51.161L220.742 30.6285C217.331 30.6285 213.921 30.608 210.511 30.5671C210.753 30.5671 209.498 30.5392 208 30.5001Z" fill="white"/>
<path d="M230.213 30.6399L250.449 51.1612L230.125 71.7607C232.856 71.7607 235.587 71.7812 238.318 71.8222C237.713 71.8222 240.444 71.7719 242.723 71.8222L263.097 51.1612L242.778 30.584C238.588 30.6231 234.431 30.6343 230.213 30.6399Z" fill="white"/>
</g>
<defs>
<filter id="filter0_d_569_379" x="0.500001" y="0.500001" width="305" height="100" filterUnits="userSpaceOnUse" color-interpolation-filters="sRGB">
<feFlood flood-opacity="0" result="BackgroundImageFix"/>
<feColorMatrix in="SourceAlpha" type="matrix" values="0 0 0 0 0 0 0 0 0 0 0 0 0 0 0 0 0 0 127 0" result="hardAlpha"/>
<feOffset/>
<feGaussianBlur stdDeviation="6.25"/>
<feComposite in2="hardAlpha" operator="out"/>
<feColorMatrix type="matrix" values="0 0 0 0 0 0 0 0 0 0 0 0 0 0 0 0 0 0 0.5 0"/>
<feBlend mode="normal" in2="BackgroundImageFix" result="effect1_dropShadow_569_379"/>
<feBlend mode="normal" in="SourceGraphic" in2="effect1_dropShadow_569_379" result="shape"/>
</filter>
<linearGradient id="paint0_linear_569_379" x1="156.784" y1="93.0676" x2="156.784" y2="1.85135" gradientUnits="userSpaceOnUse">
<stop stop-color="#292929"/>
<stop offset="1" stop-color="#737373"/>
</linearGradient>
</defs>
</svg>
